<svg width="28" height="28" viewBox="0 0 28 28" fill="none" xmlns="http://www.w3.org/2000/svg">
<path d="M23.1875 6.125V9.625C23.1875 9.9731 23.0492 10.3069 22.8031 10.5531C22.5569 10.7992 22.2231 10.9375 21.875 10.9375C21.5269 10.9375 21.1931 10.7992 20.9469 10.5531C20.7008 10.3069 20.5625 9.9731 20.5625 9.625V7.4375H15.3125V20.5625H17.5C17.8481 20.5625 18.1819 20.7008 18.4281 20.9469C18.6742 21.1931 18.8125 21.5269 18.8125 21.875C18.8125 22.2231 18.6742 22.5569 18.4281 22.8031C18.1819 23.0492 17.8481 23.1875 17.5 23.1875H10.5C10.1519 23.1875 9.81806 23.0492 9.57192 22.8031C9.32578 22.5569 9.1875 22.2231 9.1875 21.875C9.1875 21.5269 9.32578 21.1931 9.57192 20.9469C9.81806 20.7008 10.1519 20.5625 10.5 20.5625H12.6875V7.4375H7.4375V9.625C7.4375 9.9731 7.29922 10.3069 7.05308 10.5531C6.80694 10.7992 6.4731 10.9375 6.125 10.9375C5.7769 10.9375 5.44306 10.7992 5.19692 10.5531C4.95078 10.3069 4.8125 9.9731 4.8125 9.625V6.125C4.8125 5.7769 4.95078 5.44306 5.19692 5.19692C5.44306 4.95078 5.7769 4.8125 6.125 4.8125H21.875C22.2231 4.8125 22.5569 4.95078 22.8031 5.19692C23.0492 5.44306 23.1875 5.7769 23.1875 6.125Z" />
</svg>
